<svg width="31" height="31" viewBox="0 0 31 31" fill="none" xmlns="http://www.w3.org/2000/svg">
<path d="M27.9179 10.4379C28.5548 11.9985 28.9062 13.7069 28.9062 15.5H30.9688C30.9688 13.4352 30.5635 11.4623 29.8275 9.65864L27.9179 10.4379ZM28.9062 15.5C28.9062 16.4525 28.8071 17.3807 28.6189 18.2753L30.6371 18.7C30.8546 17.6666 30.9688 16.5961 30.9688 15.5H28.9062ZM28.6189 18.2753C27.5297 23.4512 23.4514 27.5297 18.2753 28.6189L18.7 30.6371C24.6761 29.3797 29.3797 24.6761 30.6371 18.7L28.6189 18.2753ZM18.2753 28.6189C17.3807 28.8071 16.4525 28.9062 15.5 28.9062V30.9688C16.5961 30.9688 17.6666 30.8546 18.7 30.6371L18.2753 28.6189ZM15.5 28.9062C14.5474 28.9062 13.6193 28.8071 12.7246 28.6189L12.2999 30.6371C13.3333 30.8546 14.4038 30.9688 15.5 30.9688V28.9062ZM2.09375 15.5C2.09375 13.7055 2.44576 11.9958 3.08356 10.4343L1.17418 9.65442C0.437013 11.4592 0.03125 13.4335 0.03125 15.5H2.09375ZM12.7246 28.6189C7.5487 27.5297 3.47029 23.4512 2.38117 18.2753L0.362863 18.7C1.62035 24.6761 6.3239 29.3797 12.2999 30.6371L12.7246 28.6189ZM2.38117 18.2753C2.19293 17.3807 2.09375 16.4525 2.09375 15.5H0.03125C0.03125 16.5961 0.145416 17.6666 0.362863 18.7L2.38117 18.2753ZM3.08356 10.4343C4.74347 6.37022 8.34149 3.30347 12.7246 2.38117L12.2999 0.362863C7.23669 1.42828 3.08882 4.96669 1.17418 9.65442L3.08356 10.4343ZM12.7246 2.38117C13.6193 2.19293 14.5474 2.09375 15.5 2.09375V0.03125C14.4038 0.03125 13.3333 0.145416 12.2999 0.362863L12.7246 2.38117ZM15.5 2.09375C16.4525 2.09375 17.3807 2.19293 18.2753 2.38117L18.7 0.362864C17.6666 0.145418 16.5961 0.03125 15.5 0.03125V2.09375ZM18.2753 2.38117C22.6598 3.30375 26.2587 6.37206 27.9179 10.4379L29.8275 9.65864C27.9136 4.96882 23.7649 1.42859 18.7 0.362864L18.2753 2.38117ZM17.5053 1.6855C17.9038 2.93442 19.3796 7.73979 19.9846 12.1563L22.028 11.8763C21.3974 7.27288 19.8743 2.32523 19.4702 1.05854L17.5053 1.6855ZM19.9846 12.1563C20.1468 13.3401 20.2437 14.4781 20.2437 15.5H22.3063C22.3063 14.3561 22.1983 13.1199 22.028 11.8763L19.9846 12.1563ZM28.4555 9.10958C26.8701 9.59042 23.892 10.4351 20.8192 11.0022L21.1935 13.0305C24.3751 12.4432 27.4362 11.574 29.0542 11.0833L28.4555 9.10958ZM20.8192 11.0022C18.9552 11.3462 17.0921 11.5812 15.5 11.5812V13.6437C17.2702 13.6437 19.2716 13.3851 21.1935 13.0305L20.8192 11.0022ZM20.2437 15.5C20.2437 17.0137 20.0312 18.7736 19.714 20.5476L21.7443 20.9106C22.0721 19.0776 22.3063 17.1847 22.3063 15.5H20.2437ZM19.714 20.5476C19.0188 24.4364 17.8508 28.2315 17.5053 29.3145L19.4702 29.9415C19.8244 28.8314 21.0249 24.9343 21.7443 20.9106L19.714 20.5476ZM29.3145 17.5053C28.2315 17.8508 24.4364 19.0188 20.5476 19.714L20.9106 21.7443C24.9343 21.0249 28.8314 19.8244 29.9415 19.4702L29.3145 17.5053ZM20.5476 19.714C18.7736 20.0312 17.0137 20.2437 15.5 20.2437V22.3063C17.1847 22.3063 19.0776 22.0721 20.9106 21.7443L20.5476 19.714ZM15.5 20.2437C13.9863 20.2437 12.2264 20.0312 10.4523 19.714L10.0893 21.7443C11.9223 22.0721 13.8153 22.3063 15.5 22.3063V20.2437ZM10.4523 19.714C6.56354 19.0188 2.76841 17.8508 1.6855 17.5053L1.05854 19.4702C2.16851 19.8244 6.06575 21.0249 10.0893 21.7443L10.4523 19.714ZM8.69375 15.5C8.69375 17.1847 8.92794 19.0776 9.25567 20.9106L11.286 20.5476C10.9688 18.7736 10.7563 17.0137 10.7563 15.5H8.69375ZM9.25567 20.9106C9.97509 24.9343 11.1757 28.8314 11.5298 29.9415L13.4947 29.3145C13.1492 28.2315 11.9813 24.4364 11.286 20.5476L9.25567 20.9106ZM11.5298 1.05854C11.1257 2.32523 9.60262 7.27288 8.97198 11.8763L11.0154 12.1563C11.6204 7.73979 13.0962 2.93442 13.4947 1.6855L11.5298 1.05854ZM8.97198 11.8763C8.80163 13.1199 8.69375 14.3561 8.69375 15.5H10.7563C10.7563 14.4781 10.8532 13.3401 11.0154 12.1563L8.97198 11.8763ZM15.5 11.5812C13.9079 11.5812 12.0448 11.3462 10.1808 11.0022L9.80652 13.0305C11.7283 13.3851 13.7298 13.6437 15.5 13.6437V11.5812ZM10.1808 11.0022C7.10681 10.4348 4.12766 9.58981 2.54278 9.10907L1.9441 11.0828C3.56156 11.5734 6.62378 12.443 9.80652 13.0305L10.1808 11.0022ZM28.3975 9.13306C28.4139 9.12454 28.4339 9.11614 28.4555 9.10958L29.0542 11.0833C29.1579 11.0518 29.2554 11.0116 29.3479 10.9635L28.3975 9.13306ZM1.59084 10.9241C1.69943 10.9905 1.81721 11.0443 1.9441 11.0828L2.54278 9.10907C2.58852 9.12294 2.63066 9.14241 2.66689 9.16458L1.59084 10.9241Z" fill="white"/>
</svg>
