<svg width="28" height="28" viewBox="0 0 28 28" fill="none" xmlns="http://www.w3.org/2000/svg">
<path d="M1.05668 22.9425C0.806721 22.6925 0.6663 22.3534 0.6663 21.9998C0.6663 21.6463 0.806721 21.3072 1.05668 21.0572L5.05668 17.0572C5.27464 16.8391 5.56143 16.7034 5.86822 16.673C6.17501 16.6426 6.48285 16.7195 6.73935 16.8905L9.83002 18.9505L13.0567 15.7238C13.3082 15.481 13.645 15.3466 13.9945 15.3496C14.3441 15.3526 14.6786 15.4929 14.9258 15.7401C15.173 15.9873 15.3132 16.3217 15.3162 16.6713C15.3193 17.0209 15.1849 17.3577 14.942 17.6092L10.942 21.6092C10.7241 21.8272 10.4373 21.963 10.1305 21.9933C9.82369 22.0237 9.51585 21.9469 9.25935 21.7758L6.16868 19.7158L2.94202 22.9425C2.69198 23.1925 2.3529 23.3329 1.99935 23.3329C1.6458 23.3329 1.30672 23.1925 1.05668 22.9425ZM27.3327 1.99984V25.9998C27.3327 26.3535 27.1922 26.6926 26.9422 26.9426C26.6921 27.1927 26.353 27.3332 25.9993 27.3332H1.99935C1.64573 27.3332 1.30659 27.1927 1.05654 26.9426C0.806491 26.6926 0.666016 26.3535 0.666016 25.9998C0.666016 25.6462 0.806491 25.3071 1.05654 25.057C1.30659 24.807 1.64573 24.6665 1.99935 24.6665H24.666V8.6665H3.33268V13.9998C3.33268 14.3535 3.19221 14.6926 2.94216 14.9426C2.69211 15.1927 2.35297 15.3332 1.99935 15.3332C1.64573 15.3332 1.30659 15.1927 1.05654 14.9426C0.806491 14.6926 0.666016 14.3535 0.666016 13.9998V1.99984C0.666016 1.64622 0.806491 1.30708 1.05654 1.05703C1.30659 0.80698 1.64573 0.666504 1.99935 0.666504H25.9993C26.353 0.666504 26.6921 0.80698 26.9422 1.05703C27.1922 1.30708 27.3327 1.64622 27.3327 1.99984ZM3.33268 5.99984H24.666V3.33317H3.33268V5.99984ZM17.6087 14.9425L18.942 13.6092C19.1849 13.3577 19.3193 13.0209 19.3162 12.6713C19.3132 12.3217 19.173 11.9873 18.9258 11.7401C18.6786 11.4929 18.3441 11.3526 17.9945 11.3496C17.645 11.3466 17.3082 11.481 17.0567 11.7238L15.7233 13.0572C15.596 13.1802 15.4944 13.3273 15.4245 13.49C15.3547 13.6526 15.3179 13.8276 15.3163 14.0046C15.3148 14.1817 15.3485 14.3572 15.4156 14.5211C15.4826 14.685 15.5816 14.8338 15.7068 14.959C15.832 15.0842 15.9809 15.1832 16.1447 15.2503C16.3086 15.3173 16.4842 15.351 16.6612 15.3495C16.8383 15.348 17.0132 15.3112 17.1759 15.2413C17.3386 15.1714 17.4857 15.0698 17.6087 14.9425Z" fill="white"/>
</svg>
